<svg width="239" height="286" viewBox="0 0 239 286" fill="none" xmlns="http://www.w3.org/2000/svg">
<path d="M209.438 8.875C223.274 17.9087 232.691 30.7963 236.615 46.9308C238.714 57.1458 238.395 67.4087 238.341 77.7944C238.34 80.0723 238.34 82.3502 238.342 84.6281C238.343 90.7739 238.325 96.9194 238.304 103.065C238.285 109.502 238.284 115.939 238.28 122.376C238.272 133.167 238.253 143.959 238.226 154.75C238.199 165.858 238.178 176.967 238.165 188.075C238.164 189.105 238.164 189.105 238.162 190.155C238.158 193.598 238.155 197.042 238.151 200.486C238.12 228.99 238.067 257.495 238 286H233V238C227.57 238.026 222.141 238.052 216.547 238.079C198.578 238.162 180.609 238.218 162.639 238.259C151.748 238.285 140.857 238.32 129.966 238.377C120.467 238.427 110.968 238.459 101.469 238.47C96.4452 238.477 91.4214 238.492 86.3973 238.529C81.6563 238.563 76.9159 238.573 72.1748 238.566C70.4464 238.567 68.7179 238.577 66.9896 238.596C48.1929 238.796 32.2306 234.391 18.2812 221.238C17.5284 220.5 16.7756 219.761 16 219C15.4328 218.457 14.8656 217.915 14.2812 217.355C2.24256 204.708 0.419259 188.652 0.691401 172.07C0.934369 165.435 1.9431 159.932 4.99999 154L6.43749 151.016C13.6596 137.335 25.4029 126.839 40.1188 121.967C49.5382 119.238 58.3239 118.461 68.1211 118.609C69.6018 118.617 71.0825 118.623 72.5632 118.627C76.4053 118.642 80.2468 118.681 84.0886 118.725C88.031 118.767 91.9735 118.785 95.916 118.805C103.611 118.847 111.305 118.915 119 119C118.991 118.164 118.982 117.329 118.973 116.468C118.892 108.54 118.832 100.612 118.793 92.6841C118.772 88.6095 118.744 84.5351 118.698 80.4607C118.654 76.5184 118.631 72.5765 118.62 68.634C118.613 67.1403 118.599 65.6466 118.577 64.153C118.334 46.7792 122.741 31.9385 134.784 19.1926C154.872 -1.37811 184.562 -5.12449 209.438 8.875Z" fill="#D6EAE8"/>
<path d="M68.1211 118.609C69.4231 118.613 70.7251 118.617 72.0665 118.622C76.857 118.642 81.6473 118.698 86.4375 118.75L119 119V238L86 238.312C80.8934 238.381 80.8934 238.381 75.6836 238.45C71.4394 238.473 71.4394 238.473 69.4358 238.477C68.0731 238.485 66.7104 238.502 65.3479 238.528C47.2657 238.853 31.6056 233.802 18.2812 221.238C17.5284 220.5 16.7756 219.761 16 219C15.4328 218.457 14.8656 217.915 14.2812 217.355C2.24256 204.708 0.419259 188.652 0.691401 172.07C0.934369 165.435 1.9431 159.932 4.99999 154L6.43749 151.016C13.6596 137.335 25.4029 126.839 40.1188 121.967C49.5383 119.238 58.3228 118.459 68.1211 118.609ZM209.438 8.875C223.695 18.1838 232.851 31.4767 237 48C237.241 51.5372 237.241 51.5372 237.227 55.3123C237.227 56.0169 237.228 56.7215 237.228 57.4474C237.226 59.7034 237.211 61.959 237.195 64.2148C237.192 65.6176 237.19 67.0203 237.189 68.423C237.179 73.5945 237.151 78.766 237.125 83.9375L237 119H119L118.75 85.3125C118.695 80.0866 118.695 80.0866 118.64 74.7551C118.622 70.434 118.622 70.434 118.618 68.3981C118.612 67.0045 118.598 65.6108 118.578 64.2173C118.334 46.8171 122.72 31.9611 134.784 19.1926C154.872 -1.37811 184.562 -5.12449 209.438 8.875ZM166 143H190V166H213V190H190V214H166V190H143V167H166V143Z" fill="#89CCC5"/>
<path d="M35.52 248.6V277H31V264.48H16.68V277H12.2V248.6H16.68V260.48H31V248.6H35.52Z" fill="#89CCC5"/>
<path d="M55.7266 277.2C53.6732 277.2 51.8199 276.8 50.1666 276C48.5132 275.2 47.0866 274.12 45.8866 272.76C44.6866 271.373 43.7532 269.827 43.0866 268.12C42.4466 266.387 42.1266 264.613 42.1266 262.8C42.1266 260.907 42.4732 259.107 43.1666 257.4C43.8599 255.667 44.8199 254.133 46.0466 252.8C47.2732 251.44 48.7132 250.373 50.3666 249.6C52.0466 248.8 53.8599 248.4 55.8066 248.4C57.8332 248.4 59.6732 248.813 61.3266 249.64C63.0066 250.467 64.4332 251.573 65.6066 252.96C66.8066 254.347 67.7266 255.893 68.3666 257.6C69.0332 259.307 69.3666 261.053 69.3666 262.84C69.3666 264.733 69.0199 266.547 68.3266 268.28C67.6599 269.987 66.7132 271.52 65.4866 272.88C64.2599 274.213 62.8066 275.267 61.1266 276.04C59.4732 276.813 57.6732 277.2 55.7266 277.2ZM46.6866 262.8C46.6866 264.133 46.8999 265.427 47.3266 266.68C47.7532 267.933 48.3532 269.053 49.1266 270.04C49.9266 271 50.8866 271.76 52.0066 272.32C53.1266 272.88 54.3799 273.16 55.7666 273.16C57.2066 273.16 58.4866 272.867 59.6066 272.28C60.7266 271.693 61.6599 270.907 62.4066 269.92C63.1799 268.907 63.7666 267.787 64.1666 266.56C64.5666 265.307 64.7666 264.053 64.7666 262.8C64.7666 261.467 64.5532 260.187 64.1266 258.96C63.7266 257.707 63.1266 256.6 62.3266 255.64C61.5266 254.653 60.5666 253.88 59.4466 253.32C58.3532 252.76 57.1266 252.48 55.7666 252.48C54.3266 252.48 53.0466 252.773 51.9266 253.36C50.8066 253.947 49.8599 254.733 49.0866 255.72C48.3132 256.707 47.7132 257.813 47.2866 259.04C46.8866 260.267 46.6866 261.52 46.6866 262.8Z" fill="#89CCC5"/>
<path d="M92.7656 255.28C92.499 254.987 92.1123 254.68 91.6056 254.36C91.099 254.013 90.499 253.693 89.8056 253.4C89.1123 253.107 88.3656 252.867 87.5656 252.68C86.7656 252.493 85.939 252.4 85.0856 252.4C83.219 252.4 81.8323 252.747 80.9256 253.44C80.019 254.133 79.5656 255.093 79.5656 256.32C79.5656 257.227 79.819 257.947 80.3256 258.48C80.8323 258.987 81.6056 259.413 82.6456 259.76C83.6856 260.107 84.9923 260.48 86.5656 260.88C88.4856 261.333 90.1523 261.88 91.5656 262.52C92.979 263.133 94.059 263.96 94.8056 265C95.5523 266.04 95.9256 267.413 95.9256 269.12C95.9256 270.56 95.659 271.8 95.1256 272.84C94.5923 273.88 93.8456 274.733 92.8856 275.4C91.9256 276.04 90.819 276.52 89.5656 276.84C88.3123 277.133 86.9656 277.28 85.5256 277.28C84.1123 277.28 82.699 277.133 81.2856 276.84C79.899 276.547 78.5656 276.12 77.2856 275.56C76.0323 274.973 74.8723 274.267 73.8056 273.44L75.8456 269.6C76.1923 269.947 76.6856 270.333 77.3256 270.76C77.9923 271.16 78.7523 271.547 79.6056 271.92C80.4856 272.293 81.4323 272.613 82.4456 272.88C83.4856 273.12 84.539 273.24 85.6056 273.24C87.3923 273.24 88.7523 272.933 89.6856 272.32C90.6456 271.68 91.1256 270.773 91.1256 269.6C91.1256 268.64 90.819 267.88 90.2056 267.32C89.5923 266.733 88.699 266.24 87.5256 265.84C86.3523 265.44 84.9523 265.04 83.3256 264.64C81.459 264.133 79.899 263.587 78.6456 263C77.3923 262.387 76.4456 261.613 75.8056 260.68C75.1923 259.72 74.8856 258.507 74.8856 257.04C74.8856 255.173 75.339 253.6 76.2456 252.32C77.1523 251.013 78.379 250.04 79.9256 249.4C81.499 248.733 83.259 248.4 85.2056 248.4C86.4856 248.4 87.699 248.547 88.8456 248.84C89.9923 249.107 91.059 249.48 92.0456 249.96C93.059 250.44 93.979 250.987 94.8056 251.6L92.7656 255.28Z" fill="#89CCC5"/>
<path d="M102.419 277V248.6H114.339C115.619 248.6 116.792 248.867 117.859 249.4C118.925 249.933 119.859 250.64 120.659 251.52C121.459 252.4 122.072 253.387 122.499 254.48C122.925 255.573 123.139 256.693 123.139 257.84C123.139 259.413 122.779 260.92 122.059 262.36C121.365 263.773 120.365 264.92 119.059 265.8C117.779 266.68 116.285 267.12 114.579 267.12H106.899V277H102.419ZM106.899 263.16H114.299C115.152 263.16 115.899 262.933 116.539 262.48C117.179 262 117.672 261.36 118.019 260.56C118.392 259.76 118.579 258.853 118.579 257.84C118.579 256.8 118.365 255.88 117.939 255.08C117.512 254.28 116.952 253.667 116.259 253.24C115.592 252.787 114.859 252.56 114.059 252.56H106.899V263.16Z" fill="#89CCC5"/>
<path d="M129.341 277V248.6H133.821V277H129.341Z" fill="#89CCC5"/>
<path d="M163.079 252.56H153.639V277H149.119V252.56H139.639V248.6H163.079V252.56Z" fill="#89CCC5"/>
<path d="M174.431 248.6H178.671L189.711 277H184.991L181.991 269.28H171.031L168.071 277H163.311L174.431 248.6ZM181.111 265.96L176.551 253.52L171.831 265.96H181.111Z" fill="#89CCC5"/>
<path d="M195.223 277V248.6H199.703V273.04H214.943V277H195.223Z" fill="#89CCC5"/>
<path d="M3.35602 90.464L35.96 50.564H4.11602V43.04H46.068V49.576L14.3 89.476H46.144V97H3.35602V90.464Z" fill="#89CCC5"/>
<path d="M75.8036 97.38C72.2569 97.38 68.9383 96.6454 65.8476 95.176C62.7569 93.7067 60.0463 91.68 57.7156 89.096C55.4356 86.512 53.6369 83.5734 52.3196 80.28C51.0529 76.9867 50.4196 73.4907 50.4196 69.792C50.4196 66.0934 51.0529 62.6227 52.3196 59.38C53.6369 56.1374 55.4356 53.2494 57.7156 50.716C60.0463 48.1827 62.7569 46.2067 65.8476 44.788C68.9889 43.3694 72.4089 42.66 76.1076 42.66C81.2249 42.66 85.5316 43.7494 89.0276 45.928C92.5743 48.056 95.2343 50.8934 97.0076 54.44L90.4716 59.152C89.0529 56.2134 87.0263 54.0094 84.3916 52.54C81.8076 51.0707 78.9703 50.336 75.8796 50.336C73.3463 50.336 71.0409 50.868 68.9636 51.932C66.8863 52.996 65.0876 54.4654 63.5676 56.34C62.0983 58.164 60.9836 60.2667 60.2236 62.648C59.4636 64.9787 59.0836 67.436 59.0836 70.02C59.0836 72.756 59.5143 75.3147 60.3756 77.696C61.2369 80.0774 62.4529 82.18 64.0236 84.004C65.5943 85.7774 67.4436 87.1707 69.5716 88.184C71.6996 89.1974 74.0049 89.704 76.4876 89.704C79.4263 89.704 82.2129 88.9694 84.8476 87.5C87.5329 85.98 90.0409 83.7254 92.3716 80.736V89.4C87.6596 94.72 82.1369 97.38 75.8036 97.38ZM91.5356 76.024H80.2116V69.716H98.6796V97H91.5356V76.024Z" fill="#89CCC5"/>
</svg>
